<?xml version="1.0" encoding="UTF-8"?>
<svg width="96px" height="80px" viewBox="0 0 96 80" version="1.1" xmlns="http://www.w3.org/2000/svg" xmlns:xlink="http://www.w3.org/1999/xlink">
    <!-- Generator: Sketch 42 (36781) - http://www.bohemiancoding.com/sketch -->
    <title>delivery-truck</title>
    <desc>Created with Sketch.</desc>
    <defs></defs>
    <g id="Welcome" stroke="none" stroke-width="1" fill="none" fill-rule="evenodd">
        <g id="Desktop" transform="translate(-778.000000, -834.000000)" fill-rule="nonzero" fill="#FFFFFF">
            <g id="How-it-works" transform="translate(0.000000, 560.000000)">
                <g id="delivery-truck" transform="translate(778.000000, 274.000000)">
                    <g id="Layer_1">
                        <g id="Group">
                            <path d="M86.0008125,32.1943925 L86.0008125,30.0315888 C86.0008125,26.7334579 83.3094375,24.0502804 80.0008125,24.0502804 L60,24.0502804 L60,14.0807477 C60,12.9796262 59.1046875,12.0869159 57.9999375,12.0869159 L51.99975,12.0869159 L51.99975,6.10654206 C51.99975,5.00542056 51.10425,4.11271028 49.9996875,4.11271028 L22.8298125,4.11271028 L19.4146875,0.708411215 C18.6339375,-0.0700934579 17.3675625,-0.0700934579 16.5864375,0.708411215 L5.1718125,12.0869159 L2.0000625,12.0869159 C0.8955,12.0871028 0,12.9796262 0,14.0807477 L0,69.9065421 C0,71.0074766 0.8955,71.9003738 2.0000625,71.9003738 L10.201125,71.9003738 C10.5020625,73.3728972 11.13,74.7282243 12.00525,75.8878505 L7.999875,75.8878505 C6.8953125,75.8878505 6,76.7807477 6,77.8816822 C6,78.9826168 6.8953125,79.875514 8.0000625,79.875514 L19.9995,79.875514 C20.0045625,79.875514 20.00925,79.8747664 20.0143125,79.8747664 C24.8368125,79.8678505 28.870125,76.4405607 29.79825,71.9005607 L57.9999375,71.9005607 L66.2025,71.9005607 C66.5034375,73.3730841 67.1315625,74.7284112 68.0068125,75.8880374 L64.00125,75.8880374 C62.896875,75.8880374 62.0011875,76.7807477 62.0011875,77.8818692 C62.0011875,78.9829907 62.8966875,79.8757009 64.00125,79.8757009 L76.0006875,79.8757009 C76.00575,79.8757009 76.010625,79.8749533 76.0156875,79.8749533 C80.8381875,79.8680374 84.8715,76.4407477 85.799625,71.9007477 L93.9999375,71.9007477 C95.1045,71.9007477 96,71.0080374 96,69.9069159 L96,51.9628037 L96,43.9872897 C96,38.0708411 91.668,33.1469159 86.0008125,32.1943925 Z M47.9998125,8.10037383 L47.9998125,12.0871028 L30.8293125,12.0871028 L26.8299375,8.10037383 L47.9998125,8.10037383 L47.9998125,8.10037383 Z M18.0005625,4.93775701 L20.5858125,7.51476636 C20.58675,7.51570093 20.587875,7.51682243 20.5888125,7.51775701 L25.1724375,12.0871028 L10.828875,12.0871028 L18.0005625,4.93775701 Z M19.999875,75.8874766 C16.69125,75.8874766 13.9996875,73.204486 13.9996875,69.9065421 C13.9996875,66.6082243 16.69125,63.9248598 19.999875,63.9248598 C23.308125,63.9248598 25.9995,66.6082243 25.9995,69.9065421 C25.9993125,73.204486 23.3079375,75.8874766 19.999875,75.8874766 Z M55.999875,26.0441121 L55.999875,59.9379439 L42.3980625,59.9379439 C41.2935,59.9379439 40.398,60.8306542 40.398,61.9317757 C40.398,63.0328972 41.2933125,63.9256075 42.3980625,63.9256075 L55.999875,63.9256075 L55.999875,67.9130841 L29.79825,67.9130841 C28.8691875,63.3680374 24.8289375,59.937757 19.999875,59.937757 C15.1708125,59.937757 11.13,63.3682243 10.2009375,67.9130841 L3.9999375,67.9130841 L3.9999375,36.0127103 L11.999625,36.0127103 C13.104,36.0127103 13.9996875,35.1201869 13.9996875,34.0188785 C13.9996875,32.917757 13.1041875,32.0250467 11.999625,32.0250467 L3.9999375,32.0250467 L3.9999375,28.037757 L27.999375,28.037757 C29.1039375,28.037757 29.9994375,27.1452336 29.9994375,26.0439252 C29.9994375,24.9428037 29.104125,24.0500935 27.999375,24.0500935 L3.9999375,24.0500935 L3.9999375,16.0742056 L5.9986875,16.0742056 L6.001875,16.0742056 L55.999875,16.0742056 L55.999875,26.0441121 Z M66.2025,67.9128972 L60,67.9128972 L60,63.9254206 L68.0064375,63.9254206 C67.131,65.0852336 66.50325,66.4403738 66.2025,67.9128972 Z M82.0006875,69.9130841 C81.997125,73.2082243 79.3070625,75.8874766 76.0010625,75.8874766 C72.692625,75.8874766 70.000875,73.204486 70.000875,69.9065421 C70.000875,66.613271 72.6841875,63.9336449 75.9856875,63.9252336 L76.0006875,63.9252336 C76.0025625,63.9252336 76.00425,63.9250467 76.0059375,63.9250467 C79.309875,63.9276636 81.997125,66.6065421 82.0006875,69.9001869 C82.0006875,69.9024299 82.0005,69.9042991 82.0005,69.9065421 C82.0005,69.908785 82.0006875,69.9108411 82.0006875,69.9130841 Z M92.0000625,67.9128972 L85.799625,67.9128972 C84.870375,63.3678505 80.830125,59.9375701 76.0010625,59.9375701 C75.9958125,59.9375701 75.99075,59.9379439 75.9856875,59.9379439 L59.9998125,59.9379439 L59.9998125,28.0379439 L80.0008125,28.0379439 C81.1036875,28.0379439 82.000875,28.9323364 82.000875,30.0317757 L82.000875,32.0254206 L68.001,32.0254206 C66.896625,32.0254206 66.0009375,32.9179439 66.0009375,34.0192523 L66.0009375,51.9628037 C66.0009375,53.0639252 66.8964375,53.9566355 68.001,53.9566355 L92.0000625,53.9566355 L92.0000625,67.9128972 L92.0000625,67.9128972 Z M74.0011875,36.0127103 L74.0011875,49.968785 L70.0010625,49.968785 L70.0010625,36.0127103 L74.0011875,36.0127103 Z M92.0000625,49.968785 L78.001125,49.968785 L78.001125,36.0127103 L84.0009375,36.0127103 C88.4116875,36.0127103 92.0000625,39.5899065 92.0000625,43.9871028 L92.0000625,49.968785 Z" id="Shape"></path>
                            <path d="M34.5744375,63.9254206 L35.8228125,63.9254206 C36.9271875,63.9254206 37.822875,63.0327103 37.822875,61.9315888 C37.822875,60.8304673 36.927375,59.937757 35.8228125,59.937757 L34.5744375,59.937757 C33.469875,59.937757 32.574375,60.8304673 32.574375,61.9315888 C32.574375,63.0327103 33.4700625,63.9254206 34.5744375,63.9254206 Z" id="Shape"></path>
                        </g>
                    </g>
                </g>
            </g>
        </g>
    </g>
</svg>