<?xml version="1.0" encoding="UTF-8"?>
<svg width="89px" height="89px" viewBox="0 0 89 89" version="1.1" xmlns="http://www.w3.org/2000/svg" xmlns:xlink="http://www.w3.org/1999/xlink">
    <!-- Generator: Sketch 42 (36781) - http://www.bohemiancoding.com/sketch -->
    <title>flasks</title>
    <desc>Created with Sketch.</desc>
    <defs></defs>
    <g id="Welcome" stroke="none" stroke-width="1" fill="none" fill-rule="evenodd">
        <g id="Desktop" transform="translate(-152.000000, -828.000000)" fill-rule="nonzero" fill="#FFFFFF">
            <g id="How-it-works" transform="translate(0.000000, 560.000000)">
                <g id="flasks" transform="translate(152.000000, 268.000000)">
                    <g id="Group">
                        <path d="M71.3379406,35.8685117 L71.3379406,14.1479766 C73.4607134,13.912155 75.1171338,12.1079682 75.1171338,9.92321656 C75.1171338,7.57879406 73.2099639,5.6716242 70.8655414,5.6716242 L51.9695754,5.6716242 C49.6251529,5.6716242 47.717983,7.57879406 47.717983,9.92321656 C47.717983,12.1077792 49.3744034,13.912155 51.4971762,14.1479766 L51.4971762,35.8688896 C47.2125159,37.5340021 43.3998769,40.2650361 40.4230064,43.811431 C39.9196178,44.411 39.9978471,45.3047792 40.5972272,45.8079788 C40.8629045,46.0309512 41.1862144,46.1397919 41.5076348,46.1397919 C41.9120085,46.1397919 42.3135478,45.9676497 42.5937749,45.633758 C45.460482,42.21869 49.1896008,39.647138 53.3780807,38.1970616 C53.9489278,37.9994098 54.3315711,37.4618195 54.3315711,36.8579045 L54.3315711,14.1748089 L62.3623567,14.1748089 C63.1450276,14.1748089 63.7795541,13.5402824 63.7795541,12.7576115 C63.7795541,11.9749406 63.1450276,11.340414 62.3623567,11.340414 L51.9695754,11.340414 C51.1880382,11.340414 50.5523779,10.7047537 50.5523779,9.92321656 C50.5523779,9.14167941 51.1880382,8.50601911 51.9695754,8.50601911 L70.8655414,8.50601911 C71.6470786,8.50601911 72.2827389,9.14167941 72.2827389,9.92321656 C72.2827389,10.7047537 71.6470786,11.340414 70.8655414,11.340414 L68.0311465,11.340414 C67.2484756,11.340414 66.613949,11.9749406 66.613949,12.7576115 C66.613949,13.5402824 67.2484756,14.1748089 68.0311465,14.1748089 L68.5035456,14.1748089 L68.5035456,36.8577155 C68.5035456,37.4616306 68.8863779,37.9994098 69.4570361,38.1968726 C79.341327,41.6189321 85.9823142,50.9493822 85.9823142,61.414535 C85.9823142,74.9595414 74.9625648,85.9792909 61.4175584,85.9792909 C58.2243291,85.9792909 55.1159427,85.374242 52.1789427,84.1811507 C51.4540934,83.8863737 50.6272059,84.2355711 50.3326178,84.9606093 C50.0380297,85.6856476 50.3872272,86.5123461 51.1122654,86.8069342 C54.3897707,88.1383439 57.8568025,88.8134968 61.4175584,88.8134968 C76.5254501,88.8134968 88.8167091,76.5222378 88.8167091,61.4143461 C88.8167091,50.0822463 81.8342718,39.9426709 71.3379406,35.8685117 L71.3379406,35.8685117 Z" id="Shape"></path>
                        <ellipse id="Oval" cx="71.9790807" cy="66.398535" rx="1.41719745" ry="1.41719745"></ellipse>
                        <ellipse id="Oval" cx="66.3102909" cy="72.0673248" rx="1.41719745" ry="1.41719745"></ellipse>
                        <path d="M53.4132272,78.535414 C52.7048174,78.2037898 51.8609236,78.5089597 51.5287325,79.2177473 C51.1967304,79.926535 51.5022781,80.7702399 52.2110658,81.102242 C55.105172,82.4578386 58.2025987,83.1452739 61.4175584,83.1452739 C73.3996794,83.1452739 83.1479193,73.397034 83.1479193,61.414913 C83.1479193,57.5954713 82.142087,53.8380085 80.2390743,50.5485987 C79.9503439,50.0495563 79.3885669,49.77462 78.8171529,49.8547389 L78.301293,49.9265435 C78.2366688,49.9354246 78.1724225,49.9490297 78.1096879,49.9667919 C75.9672633,50.5748641 74.8117749,51.502845 73.8834161,52.2484798 C72.8549087,53.0746115 72.1752208,53.620327 70.2145754,53.620327 C68.5402038,53.620327 67.7847431,52.9712505 66.7390403,52.0729363 C65.5816624,51.0786306 64.1412229,49.8411338 61.4166136,49.8411338 C58.6921932,49.8411338 57.2519427,51.0786306 56.0945648,52.0731253 C55.049051,52.9714395 54.2937792,53.620327 52.6197856,53.620327 C50.6593291,53.620327 49.9800191,53.0746115 48.9515117,52.2484798 C48.0231529,51.502845 46.8678535,50.5748641 44.7258068,49.9667919 C44.6628832,49.9488408 44.5988259,49.9354246 44.5340127,49.9265435 L44.0181529,49.8547389 C43.4478726,49.7748089 42.8874183,50.0482335 42.598121,50.5453864 C42.5858386,50.5663609 42.5739342,50.5877134 42.560896,50.6119002 C42.1708832,51.2904544 42.4048153,52.1568344 43.0833694,52.5468471 C43.3781465,52.716155 43.7080701,52.7679299 44.0192866,52.7165329 L44.0429066,52.7199342 C45.5715902,53.1692803 46.3518047,53.7958705 47.1766136,54.458552 C48.3984268,55.4400085 49.662,56.4549108 52.6197856,56.4549108 C55.3442059,56.4549108 56.7844565,55.217414 57.9418344,54.2229193 C58.9873482,53.3246051 59.74262,52.6757176 61.4166136,52.6757176 C63.0909851,52.6757176 63.8464459,53.3247941 64.8921486,54.2231083 C66.0495265,55.217414 67.489966,56.4549108 70.2145754,56.4549108 C73.1725499,56.4549108 74.4361231,55.4400085 75.6583142,54.458741 C76.3863758,53.8739108 77.0792909,53.3174246 78.2829639,52.8856518 C79.6141847,55.5161592 80.3137134,58.4437113 80.3137134,61.4151019 C80.3137134,71.8343376 71.836983,80.3110679 61.4177473,80.3110679 C58.6213333,80.31069 55.9282803,79.7133885 53.4132272,78.535414 L53.4132272,78.535414 Z" id="Shape"></path>
                        <path d="M34.2073673,36.6196263 L34.2073673,8.47918684 C36.3301401,8.24336518 37.9865605,6.43917834 37.9865605,4.25442675 C37.9865605,1.91000425 36.0793907,0.0028343949 33.7349682,0.0028343949 L14.8390021,0.0028343949 C12.4945796,0.0028343949 10.5874098,1.91000425 10.5874098,4.25442675 C10.5874098,6.43898938 12.2438301,8.24336518 14.366603,8.47918684 L14.366603,31.1891146 C14.366603,31.9717856 15.0011295,32.6063121 15.7838004,32.6063121 C16.5664713,32.6063121 17.2009979,31.9717856 17.2009979,31.1891146 L17.2009979,8.50601911 L25.2317834,8.50601911 C26.0144544,8.50601911 26.6489809,7.87149257 26.6489809,7.08882166 C26.6489809,6.30615074 26.0144544,5.6716242 25.2317834,5.6716242 L14.8390021,5.6716242 C14.057465,5.6716242 13.4218047,5.03596391 13.4218047,4.25442675 C13.4218047,3.4728896 14.057465,2.8372293 14.8390021,2.8372293 L33.7349682,2.8372293 C34.5165053,2.8372293 35.1521656,3.4728896 35.1521656,4.25442675 C35.1521656,5.03596391 34.5165053,5.6716242 33.7349682,5.6716242 L30.9005732,5.6716242 C30.1179023,5.6716242 29.4833758,6.30615074 29.4833758,7.08882166 C29.4833758,7.87149257 30.1179023,8.50601911 30.9005732,8.50601911 L31.3729724,8.50601911 L31.3729724,36.8579045 C31.3729724,37.0154968 31.3992378,37.1721444 31.4508238,37.3210446 L45.2239045,77.1450488 C46.0557049,79.5501274 45.8680679,81.7811741 44.6957622,83.4272017 C43.5232675,85.0730403 41.4762675,85.9796688 38.9315478,85.9796688 L9.64280042,85.9796688 C7.09808068,85.9796688 5.05089172,85.0732293 3.87839703,83.4272017 C2.7060913,81.7811741 2.51845435,79.5501274 3.35025478,77.1452378 L17.1233355,37.3214225 C17.3791868,36.5816454 16.9869066,35.7745987 16.2473185,35.5187473 C15.5077304,35.2630849 14.7004947,35.6551762 14.4446433,36.3947643 L0.671373673,76.2185796 C-0.468430998,79.5138471 -0.149278132,82.6579469 1.5696879,85.0713397 C3.28865393,87.4847325 6.15573885,88.8138747 9.64261146,88.8138747 L38.9313588,88.8138747 C42.4182314,88.8138747 45.2853163,87.4847325 47.0042824,85.0713397 C48.7232484,82.6579469 49.0424013,79.5138471 47.9025966,76.2185796 L34.2073673,36.6196263 L34.2073673,36.6196263 Z" id="Shape"></path>
                        <path d="M12.21662,65.9076178 C11.855707,65.6277686 11.3816072,65.5385796 10.9441656,65.6689618 C10.5063461,65.799155 10.1579045,66.1324798 10.0086263,66.5642527 L6.02875796,78.071707 C5.50496178,79.5864076 5.5610828,80.9044013 6.1869172,81.7828747 C6.81275159,82.6613482 8.03985563,83.1452739 9.64261146,83.1452739 L38.9313588,83.1452739 C40.5339257,83.1452739 41.7612187,82.6613482 42.3868641,81.7828747 C43.0128875,80.9044013 43.0690085,79.5862187 42.5450234,78.071707 L38.564966,66.5638747 C38.4156879,66.1321019 38.0674352,65.798966 37.6296157,65.6687728 C37.1917962,65.5383907 36.7178854,65.6273907 36.3571614,65.9074289 C35.5841274,66.5069979 34.8522866,66.9657919 33.0838132,66.9657919 C31.4096306,66.9657919 30.6539809,66.3167155 29.6082781,65.4184013 C28.4509002,64.4240955 27.0104607,63.1865987 24.2858514,63.1865987 C21.561431,63.1865987 20.1211805,64.4240955 18.9638025,65.4185902 C17.9182887,66.3169045 17.163017,66.9657919 15.4888344,66.9657919 C13.7209278,66.965414 12.989276,66.5069979 12.21662,65.9076178 L12.21662,65.9076178 Z M20.8110722,67.5680064 C21.856586,66.6696921 22.6118577,66.0208047 24.2858514,66.0208047 C25.9602229,66.0208047 26.7156837,66.6698811 27.7613864,67.5681953 C28.9187643,68.5625011 30.3592038,69.7999979 33.0838132,69.7999979 C34.5652569,69.7999979 35.6317452,69.5346985 36.4643015,69.1615032 L39.8663312,78.9981762 C40.0673843,79.5796051 40.0785329,79.9603588 40.0586921,80.1245648 C39.9099809,80.1969363 39.5466115,80.310879 38.9313588,80.310879 L9.64261146,80.310879 C9.02735881,80.310879 8.66398938,80.1969363 8.51527813,80.1245648 C8.49543737,79.9603588 8.50658599,79.5796051 8.70763907,78.9981762 L12.1094798,69.1618811 C12.9416582,69.5350764 14.0079575,69.8001868 15.4890234,69.8001868 C18.2136327,69.7998089 19.6538832,68.5623121 20.8110722,67.5680064 Z" id="Shape"></path>
                    </g>
                </g>
            </g>
        </g>
    </g>
</svg>