<?xml version="1.0" encoding="UTF-8"?>
<svg width="65px" height="88px" viewBox="0 0 65 88" version="1.1" xmlns="http://www.w3.org/2000/svg" xmlns:xlink="http://www.w3.org/1999/xlink">
    <!-- Generator: Sketch 42 (36781) - http://www.bohemiancoding.com/sketch -->
    <title>text-document</title>
    <desc>Created with Sketch.</desc>
    <defs></defs>
    <g id="Welcome" stroke="none" stroke-width="1" fill="none" fill-rule="evenodd">
        <g id="Desktop" transform="translate(-480.000000, -830.000000)" fill-rule="nonzero" fill="#FFFFFF">
            <g id="How-it-works" transform="translate(0.000000, 560.000000)">
                <g id="text-document" transform="translate(480.000000, 270.000000)">
                    <g id="Capa_1">
                        <path d="M49.5566332,0 L5.44472779,0 C2.482851,0 0.0709598854,2.42121444 0.0709598854,5.39191507 L0.0709598854,82.5298004 C0.0709598854,85.5049851 2.482851,87.9224628 5.44472779,87.9224628 L59.4777937,87.9224628 C62.4422779,87.9224628 64.8519341,85.5049851 64.8519341,82.5298004 L64.8519341,16.6721699 L49.5566332,0 Z M50.8249713,8.0683482 L57.5290974,15.3775796 L50.8249713,15.3775796 L50.8249713,8.0683482 Z M60.3386246,82.5299873 C60.3386246,83.0049257 59.9510458,83.3948535 59.4753725,83.3948535 L5.44472779,83.3948535 C4.96979943,83.3948535 4.58445559,83.0049257 4.58445559,82.5299873 L4.58445559,5.39191507 C4.58445559,4.91585563 4.96979943,4.53003822 5.44472779,4.53003822 L46.3092407,4.53003822 L46.3092407,17.6424119 C46.3092407,18.8908535 47.3229799,19.9029469 48.5682235,19.9029469 L60.3386246,19.9029469 L60.3386246,82.5299873 Z M12.5463037,24.0813588 L50.8732092,24.0813588 C51.8068625,24.0813588 52.5641404,24.8410361 52.5641404,25.7776476 C52.5641404,26.714259 51.8068625,27.4739363 50.8732092,27.4739363 L12.5463037,27.4739363 C11.6128367,27.4739363 10.8553725,26.714259 10.8553725,25.7776476 C10.8553725,24.8412229 11.6128367,24.0813588 12.5463037,24.0813588 Z M52.5641404,37.1767304 C52.5641404,38.113155 51.8068625,38.8730191 50.8732092,38.8730191 L12.5463037,38.8730191 C11.6128367,38.8730191 10.8553725,38.1133418 10.8553725,37.1767304 C10.8553725,36.2401189 11.6128367,35.4804416 12.5463037,35.4804416 L50.8732092,35.4804416 C51.8068625,35.4804416 52.5641404,36.2403057 52.5641404,37.1767304 Z M52.5641404,48.2025138 C52.5641404,49.1391253 51.8068625,49.8988025 50.8732092,49.8988025 L12.5463037,49.8988025 C11.6128367,49.8988025 10.8553725,49.1391253 10.8553725,48.2025138 C10.8553725,47.2659023 11.6128367,46.5062251 12.5463037,46.5062251 L50.8732092,46.5062251 C51.8068625,46.5062251 52.5641404,47.2659023 52.5641404,48.2025138 Z M52.5641404,59.4160679 C52.5641404,60.3526794 51.8068625,61.1123567 50.8732092,61.1123567 L12.5463037,61.1123567 C11.6128367,61.1123567 10.8553725,60.3526794 10.8553725,59.4160679 C10.8553725,58.4794565 11.6128367,57.7197792 12.5463037,57.7197792 L50.8732092,57.7197792 C51.8068625,57.7197792 52.5641404,58.4794565 52.5641404,59.4160679 Z" id="Shape"></path>
                    </g>
                </g>
            </g>
        </g>
    </g>
</svg>